<?xml version="1.0" encoding="UTF-8"?>
<svg id="Layer_2" data-name="Layer 2" xmlns="http://www.w3.org/2000/svg" viewBox="0 0 409.55 183.84">
  <defs>
    <style>
      .cls-1, .cls-2 {
        fill: #00b0c1;
      }

      .cls-1, .cls-2, .cls-3, .cls-4, .cls-5 {
        stroke-width: 0px;
      }

      .cls-2, .cls-3, .cls-5 {
        fill-rule: evenodd;
      }

      .cls-3, .cls-4 {
        fill: #261c64;
      }

      .cls-5 {
        fill: #fff;
      }
    </style>
  </defs>
  <g id="Layer_1-2" data-name="Layer 1">
    <g>
      <path class="cls-3" d="M163.91,28.41c-20.24-6.88-24.78,18.78-33.69,6.61-2.8-3.7-4.68-7.56-5.91-11.54-1.23-4.31-2.22-15.09-2.78-23.47h-12.59c.68,9.68,1.6,20.61,1.6,20.61,1.58,19.65,3.58,21.41,18.63,31.28,15.79,10.37,14.15,34.69-9.11,41.45-11.38,3.3-20.76-3.32-29.19,4.5-8.04,7.47-6.58,22.9-6.86,34.54h14.29c-.98-5.44-1.23-12.76-.58-18.65,2.19-8.61,9.07-9.71,21.38-2.1,64.34,31.25,92.59-67,44.83-83.23M144.88,82.34c1.68-.41,3.38.63,3.79,2.32.41,1.68-.63,3.38-2.32,3.79-1.68.4-3.38-.63-3.78-2.32-.41-1.68.63-3.38,2.32-3.79ZM145.38,111.38c-4.12.99-8.27-1.54-9.26-5.66-1-4.12,1.54-8.26,5.66-9.26,4.12-.99,8.27,1.54,9.27,5.67.99,4.11-1.54,8.26-5.67,9.26ZM161.13,95.72c-2.52.61-5.06-.94-5.66-3.46-.61-2.52.94-5.06,3.47-5.66,2.51-.62,5.05.94,5.66,3.46.6,2.52-.95,5.06-3.47,5.66ZM174.79,81.59c-1.68.41-3.38-.63-3.8-2.31-.41-1.69.63-3.39,2.33-3.79,1.68-.41,3.38.63,3.78,2.32.42,1.68-.63,3.38-2.31,3.79Z"/>
      <path class="cls-1" d="M284.84,28.27v4.53h6.31v2.46c-.98.71-2.21,1.17-3.95,1.17-3.95,0-6.6-2.56-6.6-6.6s2.74-6.6,6.32-6.6c1.97,0,3.67.71,5.18,2.22l3.39-3.18c-2.38-2.47-5.46-3.64-8.7-3.64-6.75,0-11.63,4.69-11.63,11.2s4.93,11.13,11.76,11.13c3.39,0,6.66-1.2,9.01-3.3v-9.39h-11.09Z"/>
      <path class="cls-1" d="M242.71,40.6l-1.48-3.64h-10.17l-1.51,3.64h-5.49l9.47-21.59h5.31l9.5,21.59h-5.62ZM232.72,32.91h6.85l-3.4-8.29-3.45,8.29Z"/>
      <polygon class="cls-1" points="250.94 40.6 250.94 19.01 255.45 19.01 266 31.87 266 19.01 271.31 19.01 271.31 40.6 266.95 40.6 256.26 27.52 256.26 40.6 250.94 40.6"/>
      <path class="cls-1" d="M316.65,40.6l-1.48-3.64h-10.18l-1.52,3.64h-5.49l9.47-21.59h5.31l9.51,21.59h-5.63ZM306.66,32.91h6.85l-3.39-8.29-3.46,8.29Z"/>
      <polygon class="cls-1" points="324.89 40.6 324.89 19.01 330.13 19.01 330.13 36.09 341.27 36.09 341.27 40.6 324.89 40.6"/>
      <path class="cls-1" d="M342.12,29.8c0-6.48,4.9-11.16,11.69-11.16s11.65,4.65,11.65,11.16-4.9,11.16-11.69,11.16-11.65-4.65-11.65-11.16M359.95,29.8c0-3.92-2.53-6.54-6.14-6.54s-6.17,2.62-6.17,6.54,2.53,6.54,6.17,6.54,6.14-2.62,6.14-6.54Z"/>
      <path class="cls-1" d="M382.58,40.6l-5.3-6.66h-2.66v6.66h-5.3v-21.59h9.38c5.99,0,9.6,2.77,9.6,7.49,0,3.46-1.92,5.83-5.31,6.85l5.76,7.25h-6.17ZM374.62,23.42v6.26h3.93c2.81,0,4.44-.86,4.44-3.08s-1.63-3.18-4.44-3.18h-3.93Z"/>
      <polygon class="cls-1" points="396.87 36.21 409.55 36.21 409.55 40.6 391.66 40.6 391.66 19.01 409.24 19.01 409.24 23.39 396.87 23.39 396.87 27.46 407.82 27.46 407.82 31.62 396.87 31.62 396.87 36.21"/>
      <path class="cls-1" d="M218.34,29.4c2.03-.8,3.33-2.65,3.33-4.93,0-3.46-2.86-5.46-7.61-5.46h-11.23v21.59h11.51c5.12,0,8.23-2.22,8.23-5.86,0-2.59-1.64-4.56-4.22-5.33M213.63,36.31h-5.5v-13.02h4.91c2.32,0,3.43.68,3.43,2.22s-1.05,2.28-3.43,2.28h-1.64v3.82h2.13c2.51,0,3.77.71,3.77,2.37,0,1.51-1.11,2.31-3.66,2.31Z"/>
      <path class="cls-4" d="M373.71,63.88c0-9.94,7.52-17.13,17.94-17.13s17.9,7.15,17.9,17.13-7.53,17.13-17.95,17.13-17.89-7.15-17.89-17.13M401.07,63.88c0-6.01-3.88-10.03-9.42-10.03s-9.47,4.02-9.47,10.03,3.88,10.04,9.47,10.04,9.42-4.02,9.42-10.04Z"/>
      <path class="cls-4" d="M217.67,61.54v6.95h9.68v3.78c-1.51,1.09-3.41,1.8-6.06,1.8-6.06,0-10.13-3.93-10.13-10.12s4.21-10.13,9.71-10.13c3.03,0,5.63,1.09,7.95,3.41l5.21-4.87c-3.64-3.79-8.38-5.58-13.35-5.58-10.37,0-17.85,7.19-17.85,17.18s7.57,17.08,18.04,17.08c5.21,0,10.22-1.84,13.82-5.06v-14.42h-17.02Z"/>
      <path class="cls-4" d="M266.5,80.45l-2.27-5.59h-15.63l-2.31,5.59h-8.43l14.53-33.13h8.14l14.58,33.13h-8.62ZM251.17,68.66h10.51l-5.21-12.73-5.3,12.73Z"/>
      <path class="cls-4" d="M276.97,76.42l3.32-5.87c3.64,2.32,7.62,3.88,11.65,3.88,3.21,0,5.07-1.28,5.07-3.08,0-2.32-1.98-3.03-6.54-3.98-7.58-1.61-12.59-4.35-12.59-10.6,0-6.63,5.82-10.04,13.4-10.04,5.02,0,9.28,1.32,12.93,4.17l-3.94,5.34c-2.46-1.8-5.78-2.93-9.05-2.93s-5.02.95-5.02,3.17c0,1.9,1.71,2.98,6.44,4.03,8.33,1.75,12.7,4.07,12.7,10.13,0,6.48-5.82,10.36-13.68,10.36-5.92,0-11.13-1.84-14.69-4.59"/>
      <polygon class="cls-4" points="335.92 47.32 335.92 54.28 325.51 54.28 325.51 80.45 317.32 80.45 317.32 54.28 306.94 54.28 306.94 47.32 335.92 47.32"/>
      <path class="cls-4" d="M361.06,80.45l-8.14-10.22h-4.08v10.22h-8.15v-33.13h14.4c9.18,0,14.73,4.26,14.73,11.5,0,5.3-2.93,8.95-8.15,10.51l8.86,11.12h-9.47ZM348.85,54.09v9.6h6.01c4.31,0,6.82-1.32,6.82-4.73s-2.51-4.87-6.82-4.87h-6.01Z"/>
      <path class="cls-4" d="M202.83,104.46c0-10.16,7.81-17.67,18.21-17.67,5.66,0,10.46,1.9,14.07,5.81l-5.42,5.03c-2.16-2.35-4.84-3.62-8.25-3.62-5.62,0-9.96,4.16-9.96,10.4s4.35,10.45,9.92,10.45c3.22,0,6.09-1.27,8.39-3.66l5.42,4.98c-3.37,4-8.3,5.95-13.87,5.95-10.49,0-18.51-7.51-18.51-17.67"/>
      <polygon class="cls-4" points="248.05 114.62 268.12 114.62 268.12 121.55 239.79 121.55 239.79 87.38 268.12 87.38 268.12 94.31 248.05 94.31 248.05 100.75 268.12 100.75 268.12 107.34 248.05 107.34 248.05 114.62"/>
      <polygon class="cls-4" points="389.48 114.62 409.55 114.62 409.55 121.55 381.23 121.55 381.23 87.38 409.55 87.38 409.55 94.31 389.48 94.31 389.48 100.75 409.55 100.75 409.55 107.34 389.48 107.34 389.48 114.62"/>
      <polygon class="cls-4" points="273.88 121.55 273.88 87.38 281.01 87.38 297.71 107.74 297.71 87.38 306.12 87.38 306.12 121.55 299.23 121.55 282.28 100.85 282.28 121.55 273.88 121.55"/>
      <polygon class="cls-4" points="340.93 87.38 340.93 94.55 330.19 94.55 330.19 121.55 321.74 121.55 321.74 94.55 311.04 94.55 311.04 87.38 340.93 87.38"/>
      <path class="cls-4" d="M366.87,121.55l-8.4-10.54h-4.2v10.54h-8.41v-34.17h14.84c9.48,0,15.19,4.39,15.19,11.87,0,5.47-3.02,9.23-8.4,10.84l9.13,11.47h-9.76ZM354.27,94.36v9.91h6.2c4.44,0,7.03-1.36,7.03-4.87s-2.59-5.03-7.03-5.03h-6.2Z"/>
      <path class="cls-2" d="M157.34,123.15c-4.24,8.44-10.32,15.48-17.18,21.93-7.14,6.72-15.04,12.45-23.33,17.65-3.46,2.18-7.05,4.14-10.6,6.16-.3.17-.88.15-1.2-.02-6.95-3.76-13.66-7.9-20.08-12.52-8.12-5.84-15.66-12.31-22.12-19.99-4.91-5.83-8.99-12.17-11.53-19.42-1.18-3.38-1.67-6.83-1.66-10.43.02-6.59,0-13.19.01-19.79h36.69v-32.69h-36.68c0-5.33,0-10.65,0-15.96v-.71c2.51-.61,4.99-1.11,7.43-1.82,4.83-1.39,9.65-2.78,14.41-4.37,6.62-2.2,13.03-4.91,19.26-8.03,3.9-1.96,14.7-7.82,14.7-7.82V.13c-2.21,1.47-4.53,2.7-4.84,2.88-4.83,2.65-9.6,5.41-14.52,7.91-6.17,3.15-12.58,5.79-19.13,8.08-6.03,2.11-12.14,3.92-18.39,5.2-3.91.8-7.85,1.48-11.91,2.23v27.62H0v32.69h36.67v6.93c0,4.32-.04,8.64,0,12.97.03,2.19-.03,4.41.31,6.56,1.14,7.29,3.96,13.99,7.74,20.28,3.79,6.34,8.4,12.04,13.56,17.33,6.06,6.2,12.66,11.77,19.79,16.67,5.12,3.52,10.39,6.82,15.71,10.05,3.6,2.19,7.39,4.06,11.1,6.09.53.29.97.32,1.52.02,1.38-.77,2.8-1.46,4.19-2.21,7.22-3.9,14.24-8.09,20.98-12.76,8.53-5.91,16.54-12.45,23.58-20.1,7.2-7.81,13.23-16.4,16.87-26.5.98-2.73,1.82-5.51,2.27-8.36-4.84,4.17-10.49,7.45-16.93,9.44"/>
      <path class="cls-5" d="M43.94,82.14c-7.18,0-12.37-4.93-12.37-11.71s5.13-11.79,12.24-11.79c3.41,0,6.66,1.23,9.16,3.83l-3.57,3.35c-1.58-1.6-3.38-2.34-5.45-2.34-3.77,0-6.66,2.66-6.66,6.95s2.79,6.94,6.95,6.94c1.82,0,3.11-.49,4.16-1.23v-2.59h-6.64v-4.76h11.68v9.88c-2.46,2.21-5.91,3.47-9.48,3.47M20.03,81.75H7.93v-22.73h11.82c5,0,8.02,2.11,8.02,5.75,0,2.4-1.36,4.35-3.51,5.2,2.73.81,4.45,2.89,4.45,5.61,0,3.83-3.28,6.17-8.67,6.17ZM69,58.64c3.78,0,6.95,1.26,9.35,3.86l-3.6,3.34c-1.42-1.55-3.22-2.4-5.48-2.4-3.74,0-6.63,2.76-6.63,6.91s2.89,6.94,6.58,6.94c2.15,0,4.07-.84,5.59-2.44l3.6,3.32c-2.24,2.66-5.52,3.96-9.22,3.96-6.99,0-12.31-5-12.31-11.75s5.19-11.75,12.11-11.75ZM19.19,72.3h-2.25v-4.03h1.73c2.5,0,3.61-.84,3.61-2.4s-1.17-2.34-3.61-2.34h-5.17v13.7h5.78c2.7,0,3.87-.84,3.87-2.43,0-1.75-1.33-2.5-3.96-2.5Z"/>
      <path class="cls-4" d="M285.93,133.34v7.18h4.49c3.21,0,5.09-.99,5.09-3.53s-1.88-3.65-5.09-3.65h-4.49ZM288.97,145.4h-3.04v7.64h-6.09v-24.77h10.75c6.87,0,11,3.18,11,8.6,0,3.42-1.63,5.91-4.57,7.28l-.11.05c-2.41,1.08-5.04,1.13-7.94,1.19Z"/>
      <path class="cls-4" d="M246.71,140.63c0-4.36-2.81-7.27-6.83-7.27s-6.86,2.91-6.86,7.27,2.81,7.27,6.86,7.27,6.83-2.92,6.83-7.27M226.89,140.63c0-7.2,5.45-12.42,13-12.42s12.97,5.18,12.97,12.42-5.45,12.42-13,12.42-12.96-5.18-12.96-12.42Z"/>
      <polygon class="cls-4" points="208.73 144.08 208.73 151.5 202.83 151.5 202.83 127.48 208.73 127.48 208.73 132.39 208.73 136.54 211.72 136.54 215.95 136.54 217.45 136.54 217.45 127.48 223.35 127.48 223.35 132.39 223.35 136.54 223.35 139.35 223.35 142.44 223.35 144.08 223.35 151.5 217.45 151.5 217.45 142.44 208.73 142.44 208.73 144.08"/>
      <path class="cls-4" d="M255.71,149.72l2.4-4.25c2.64,1.68,5.52,2.81,8.44,2.81,2.33,0,3.67-.93,3.67-2.23,0-1.68-1.44-2.2-4.74-2.88-5.49-1.16-9.12-3.15-9.12-7.68,0-4.81,4.22-7.27,9.71-7.27,3.63,0,6.72.96,9.37,3.02l-2.85,3.87c-1.78-1.3-4.19-2.12-6.55-2.12s-3.64.69-3.64,2.3c0,1.38,1.24,2.16,4.66,2.92,6.04,1.27,9.2,2.95,9.2,7.34,0,4.7-4.22,7.51-9.91,7.51-4.29,0-8.07-1.33-10.64-3.33"/>
      <polygon class="cls-4" points="335.68 129.04 335.68 134.08 328.14 134.08 328.14 153.05 322.21 153.05 322.21 134.08 314.69 134.08 314.69 129.04 335.68 129.04"/>
      <path class="cls-4" d="M389,150.13l2.4-4.25c2.64,1.68,5.52,2.81,8.44,2.81,2.33,0,3.67-.93,3.67-2.23,0-1.68-1.44-2.2-4.74-2.88-5.49-1.16-9.13-3.15-9.13-7.68,0-4.81,4.22-7.27,9.71-7.27,3.63,0,6.72.96,9.37,3.02l-2.85,3.87c-1.78-1.3-4.19-2.12-6.55-2.12s-3.64.69-3.64,2.3c0,1.38,1.24,2.16,4.66,2.92,6.04,1.27,9.2,2.95,9.2,7.34,0,4.7-4.22,7.51-9.91,7.51-4.29,0-8.06-1.33-10.64-3.33"/>
      <path class="cls-4" d="M346.06,144.51h7.62l-3.78-9.23-3.84,9.23ZM357.17,153.05l-1.64-4.05h-11.32l-1.68,4.05h-6.11l10.53-24.01h5.9l10.57,24.01h-6.25Z"/>
      <polygon class="cls-4" points="367 153.15 367 128.87 372.89 128.87 372.89 148.09 385.42 148.09 385.42 153.15 367 153.15"/>
      <polygon class="cls-4" points="311.11 133.67 311.11 152.64 305.17 152.64 305.17 140.76 305.17 133.67 305.17 128.63 311.11 128.63 311.11 133.67"/>
    </g>
  </g>
</svg>