<svg width="100" height="100" viewBox="0 0 100 100" fill="none" xmlns="http://www.w3.org/2000/svg">
<g clip-path="url(#clip0_3661_564)">
<rect width="100" height="100" fill="white"/>
<path d="M78.7586 52.3801C80.0263 50.732 80.4455 48.5838 79.8902 46.5801L72.6185 19.9135C71.8236 17.0148 69.1908 15.0041 66.1851 15.0002H61.6719V11.6666C61.6721 5.22344 56.4486 0 50.0053 0C43.5619 0 38.3387 5.22344 38.3387 11.6666V15H33.8254C30.8197 15.0039 28.1869 17.0148 27.392 19.9133L20.1203 46.5801C19.314 49.3998 20.4959 52.4104 23.0053 53.9283C22.1484 55.0143 21.6793 56.3553 21.6719 57.7383V66.6666C21.6849 71.1227 23.7816 75.316 27.3385 78L38.3385 86.25V95C38.3385 97.7613 40.5771 100 43.3385 100H56.6719C59.4334 100 61.6719 97.7615 61.6719 95V86.2551L72.6719 78.0051C76.2299 75.3197 78.3265 71.1244 78.3385 66.6668V57.5C78.3316 56.1875 77.8824 54.9156 77.0635 53.89C77.7113 53.4881 78.2847 52.9771 78.7586 52.3801ZM41.672 11.6666C41.672 7.06426 45.4031 3.3332 50.0055 3.3332C54.6078 3.3332 58.3388 7.06426 58.3388 11.6666V15H55.0054V11.6666C55.0054 8.90527 52.7668 6.6666 50.0055 6.6666C47.2441 6.6666 45.0054 8.90527 45.0054 11.6666V15H41.672V11.6666ZM51.6721 15H48.3387V11.6666C48.3387 10.7461 49.0849 10 50.0053 10C50.9258 10 51.6719 10.7463 51.6719 11.6666L51.6721 15ZM23.3387 47.4566L30.6103 20.79C31.0056 19.34 32.3224 18.3338 33.8254 18.3334H66.1853C67.6888 18.333 69.0066 19.3395 69.4019 20.79L76.6736 47.4566C76.9469 48.4588 76.7373 49.5309 76.1068 50.3564C75.4763 51.182 74.4972 51.6664 73.4586 51.6666H26.5519C25.5137 51.6658 24.5349 51.1811 23.9049 50.3557C23.275 49.5303 23.0656 48.4584 23.3387 47.4566ZM32.7586 55H41.2203C36.4918 59.1246 35.2974 65.9969 38.357 71.475C37.5418 71.0062 36.7564 70.4875 36.0053 69.9217L34.3387 68.6684C33.7086 68.1959 33.3381 67.4541 33.3387 66.6666V57.5C33.3338 56.634 33.1355 55.7799 32.7586 55ZM40.0053 65C40.0053 59.4771 44.4824 55 50.0053 55C55.5281 55 60.0053 59.4771 60.0053 65C60.0053 70.5229 55.5281 75 50.0053 75C44.4847 74.9945 40.0109 70.5205 40.0053 65ZM58.7904 55H67.3387C66.9084 55.8492 66.6803 56.7863 66.672 57.7383V66.6666C66.672 67.4535 66.3015 68.1945 65.6721 68.6666L64.0055 69.9199C63.256 70.4848 62.4724 71.0023 61.6588 71.4699C64.7144 65.992 63.5179 59.1227 58.7904 55ZM75.0053 66.6666C74.9957 70.0742 73.3922 73.2811 70.6719 75.3332L59.0053 84.0832C58.5855 84.398 58.3387 84.892 58.3387 85.4166V95C58.3387 95.9205 57.5924 96.6666 56.6721 96.6666H43.3387C42.4181 96.6666 41.672 95.9205 41.672 95V85.4217C41.672 84.8971 41.425 84.4031 41.0054 84.0883L29.3388 75.3383C26.6168 73.2854 25.0131 70.0762 25.0054 66.6666V57.7332C24.9679 56.3961 25.9189 55.235 27.2371 55.0082C27.9455 54.9344 28.6521 55.1639 29.182 55.6398C29.7101 56.1133 30.0099 56.7906 30.0053 57.4998V66.6664C30.0074 68.502 30.8715 70.2301 32.3387 71.333L34.0053 72.5797C37.3726 75.1137 41.2974 76.8053 45.4519 77.5131C48.3926 78.6064 51.6281 78.6064 54.5685 77.5131C58.7189 76.8066 62.64 75.118 66.0053 72.5881L67.6719 71.3414C69.141 70.2363 70.0053 68.5049 70.0053 66.6664V57.733C69.9678 56.3959 70.9187 55.2348 72.2369 55.008C72.9453 54.9346 73.6517 55.1641 74.1818 55.6396C74.7099 56.1131 75.0097 56.7904 75.0051 57.4996L75.0053 66.6666Z" fill="#157883"/>
<path d="M57.3835 29.3381L56.6591 31.8097H42.8523L43.5767 29.3381H57.3835ZM50.9062 46L43.108 36.4545L43.0653 34.6648H46.9432C47.9517 34.6648 48.8111 34.5227 49.5213 34.2386C50.2315 33.9474 50.7749 33.5142 51.1513 32.9389C51.5277 32.3565 51.7159 31.625 51.7159 30.7443C51.7159 29.4446 51.3253 28.4254 50.544 27.6868C49.7628 26.9411 48.5625 26.5682 46.9432 26.5682H42.8523L43.5767 24.1818H46.9432C48.6761 24.1818 50.0966 24.4695 51.2045 25.0447C52.3196 25.6129 53.1435 26.3942 53.6761 27.3885C54.2159 28.3757 54.4858 29.4943 54.4858 30.7443C54.4858 31.8736 54.2372 32.9141 53.7401 33.8658C53.25 34.8104 52.4616 35.5703 51.375 36.1456C50.2955 36.7209 48.8679 37.0085 47.0923 37.0085H47.0284L54.2301 45.8295V46H50.9062ZM57.3835 24.1818L56.6591 26.6534L45.7926 26.5682L46.517 24.1818H57.3835Z" fill="#157883"/>
</g>
<defs>
<clipPath id="clip0_3661_564">
<rect width="100" height="100" fill="white"/>
</clipPath>
</defs>
</svg>
