<svg width="100" height="100" viewBox="0 0 100 100" fill="none" xmlns="http://www.w3.org/2000/svg">
<g clip-path="url(#clip0_3661_520)">
<rect width="100" height="100" fill="white"/>
<path d="M91.6667 74.9998H88.3334V38.3332C88.3334 28.1666 84.2947 18.4164 77.1058 11.2275C69.9169 4.03866 60.1667 0 50.0001 0C39.8335 0 30.0832 4.03866 22.8943 11.2275C15.7055 18.4164 11.6668 28.1666 11.6668 38.3332V74.9998H8.33345C6.12411 75.0023 4.006 75.8812 2.44376 77.4434C0.881522 79.0056 0.00271568 81.1237 0.00012207 83.3331V91.6664C0.00271568 93.8757 0.881522 95.9938 2.44376 97.556C4.006 99.1183 6.12411 99.9971 8.33345 99.9997H91.6667C93.8761 99.9971 95.9942 99.1183 97.5564 97.556C99.1186 95.9938 99.9974 93.8757 100 91.6664V83.3331C99.9974 81.1237 99.1186 79.0056 97.5564 77.4434C95.9942 75.8812 93.8761 75.0023 91.6667 74.9998ZM15.0001 38.3332C15.0001 29.0507 18.6876 20.1483 25.2514 13.5846C31.8151 7.0208 40.7175 3.33332 50.0001 3.33332C59.2827 3.33332 68.185 7.0208 74.7488 13.5846C81.3126 20.1483 85.0001 29.0507 85.0001 38.3332V74.9998H15.0001V38.3332ZM96.6667 91.6664C96.6653 92.992 96.138 94.2629 95.2006 95.2003C94.2633 96.1377 92.9924 96.6649 91.6667 96.6663H8.33345C7.00781 96.6649 5.73688 96.1377 4.79952 95.2003C3.86215 94.2629 3.3349 92.992 3.33345 91.6664V83.3331C3.3349 82.0074 3.86215 80.7365 4.79952 79.7991C5.73688 78.8618 7.00781 78.3345 8.33345 78.3331H91.6667C92.9924 78.3345 94.2633 78.8618 95.2006 79.7991C96.138 80.7365 96.6653 82.0074 96.6667 83.3331V91.6664Z" fill="#157883"/>
<path d="M78.3333 61.6665H21.6667C21.2246 61.6665 20.8007 61.8421 20.4882 62.1547C20.1756 62.4672 20 62.8911 20 63.3332V69.9998C20 70.4418 20.1756 70.8658 20.4882 71.1783C20.8007 71.4909 21.2246 71.6665 21.6667 71.6665H78.3333C78.7753 71.6665 79.1992 71.4909 79.5118 71.1783C79.8244 70.8658 79.9999 70.4418 79.9999 69.9998V63.3332C79.9999 62.8911 79.8244 62.4672 79.5118 62.1547C79.1992 61.8421 78.7753 61.6665 78.3333 61.6665ZM76.6666 68.3331H23.3333V64.9998H76.6666V68.3331Z" fill="#157883"/>
<path d="M26.6668 58.3336H36.6668C37.1088 58.3336 37.5327 58.158 37.8453 57.8455C38.1578 57.5329 38.3334 57.109 38.3334 56.6669V43.3337C38.3334 42.8916 38.1578 42.4677 37.8453 42.1551C37.5327 41.8426 37.1088 41.667 36.6668 41.667H26.6668C26.2248 41.667 25.8008 41.8426 25.4883 42.1551C25.1757 42.4677 25.0001 42.8916 25.0001 43.3337V56.6669C25.0001 57.109 25.1757 57.5329 25.4883 57.8455C25.8008 58.158 26.2248 58.3336 26.6668 58.3336ZM28.3335 45.0003H35.0001V55.0003H28.3335V45.0003Z" fill="#157883"/>
<path d="M65.0002 58.3337H75.0002C75.4422 58.3337 75.8661 58.1581 76.1787 57.8456C76.4912 57.533 76.6668 57.1091 76.6668 56.6671V26.6671C76.6668 26.2251 76.4912 25.8012 76.1787 25.4886C75.8661 25.1761 75.4422 25.0005 75.0002 25.0005H65.0002C64.5581 25.0005 64.1342 25.1761 63.8216 25.4886C63.5091 25.8012 63.3335 26.2251 63.3335 26.6671V56.6671C63.3335 57.1091 63.5091 57.533 63.8216 57.8456C64.1342 58.1581 64.5581 58.3337 65.0002 58.3337ZM66.6668 28.3338H73.3335V55.0004H66.6668V28.3338Z" fill="#157883"/>
<path d="M45 58.3334H55C55.4421 58.3334 55.866 58.1578 56.1785 57.8453C56.4911 57.5327 56.6667 57.1088 56.6667 56.6668V35.0002C56.6667 34.5581 56.4911 34.1342 56.1785 33.8216C55.866 33.5091 55.4421 33.3335 55 33.3335H45C44.558 33.3335 44.1341 33.5091 43.8215 33.8216C43.509 34.1342 43.3334 34.5581 43.3334 35.0002V56.6668C43.3334 57.1088 43.509 57.5327 43.8215 57.8453C44.1341 58.1578 44.558 58.3334 45 58.3334ZM46.6667 36.6668H53.3334V55.0001H46.6667V36.6668Z" fill="#157883"/>
<path d="M31.6666 80H10C8.67436 80.0014 7.40343 80.5287 6.46606 81.4661C5.5287 82.4034 5.00145 83.6743 5 85V90C5 90.442 5.17559 90.8659 5.48816 91.1785C5.80072 91.491 6.22464 91.6666 6.66667 91.6666C7.10869 91.6666 7.53261 91.491 7.84517 91.1785C8.15774 90.8659 8.33333 90.442 8.33333 90V85C8.3339 84.5581 8.50968 84.1345 8.82212 83.8221C9.13455 83.5097 9.55814 83.3339 10 83.3333H31.6666C32.1087 83.3333 32.5326 83.1577 32.8452 82.8452C33.1577 82.5326 33.3333 82.1087 33.3333 81.6667C33.3333 81.2246 33.1577 80.8007 32.8452 80.4882C32.5326 80.1756 32.1087 80 31.6666 80Z" fill="#157883"/>
</g>
<defs>
<clipPath id="clip0_3661_520">
<rect width="100" height="100" fill="white"/>
</clipPath>
</defs>
</svg>
