<svg width="100" height="100" viewBox="0 0 100 100" fill="none" xmlns="http://www.w3.org/2000/svg">
<g clip-path="url(#clip0_3661_546)">
<rect width="100" height="100" fill="white"/>
<path d="M98.2146 53.5757H80.6846C80.4501 53.5756 80.2179 53.6216 80.0012 53.7113C79.7845 53.801 79.5876 53.9325 79.4218 54.0983C79.256 54.2641 79.1245 54.461 79.0348 54.6777C78.9451 54.8944 78.899 55.1266 78.8992 55.3611V98.2114C78.899 98.4459 78.9451 98.6781 79.0348 98.8948C79.1245 99.1115 79.256 99.3084 79.4218 99.4742C79.5876 99.64 79.7845 99.7715 80.0012 99.8612C80.2179 99.9509 80.4501 99.997 80.6846 99.9968H98.2146C98.4491 99.997 98.6813 99.9509 98.898 99.8612C99.1147 99.7715 99.3115 99.64 99.4774 99.4742C99.6432 99.3084 99.7747 99.1115 99.8644 98.8948C99.954 98.6781 100 98.4459 100 98.2114V55.3611C100 55.1266 99.954 54.8944 99.8644 54.6777C99.7747 54.461 99.6432 54.2641 99.4774 54.0983C99.3115 53.9325 99.1147 53.801 98.898 53.7113C98.6813 53.6216 98.4491 53.5756 98.2146 53.5757ZM96.4291 96.426H82.47V57.1465H96.4291V96.426Z" fill="#157883"/>
<path d="M71.9197 37.5073H54.3897C54.1552 37.5073 53.923 37.5534 53.7064 37.6431C53.4897 37.7328 53.2929 37.8643 53.1271 38.0301C52.9612 38.1959 52.8297 38.3928 52.74 38.6094C52.6503 38.8261 52.6042 39.0583 52.6042 39.2928V98.2119C52.6041 98.4464 52.6502 98.6786 52.7399 98.8953C52.8296 99.112 52.9611 99.3088 53.1269 99.4747C53.2927 99.6405 53.4896 99.772 53.7063 99.8617C53.9229 99.9513 54.1552 99.9974 54.3897 99.9973H71.9197C72.1542 99.9974 72.3864 99.9513 72.6031 99.8617C72.8197 99.772 73.0166 99.6405 73.1824 99.4747C73.3483 99.3088 73.4798 99.112 73.5695 98.8953C73.6591 98.6786 73.7052 98.4464 73.7051 98.2119V39.2928C73.7051 39.0583 73.659 38.8261 73.5693 38.6094C73.4796 38.3928 73.3481 38.1959 73.1823 38.0301C73.0165 37.8643 72.8196 37.7328 72.603 37.6431C72.3863 37.5534 72.1541 37.5073 71.9197 37.5073ZM70.1342 96.4265H56.1751V41.0782H70.1342V96.4265Z" fill="#157883"/>
<path d="M45.6335 46.4341H28.1018C27.8674 46.434 27.6352 46.4802 27.4185 46.5699C27.2019 46.6596 27.005 46.7911 26.8392 46.9569C26.6734 47.1227 26.5419 47.3195 26.4522 47.5362C26.3625 47.7528 26.3163 47.985 26.3164 48.2195V55.0038C26.3248 55.4718 26.5166 55.9178 26.8505 56.2458C27.1845 56.5738 27.6338 56.7575 28.1019 56.7575C28.57 56.7575 29.0193 56.5737 29.3532 56.2457C29.6871 55.9177 29.8789 55.4717 29.8873 55.0037V50.0049H43.8481V59.0925C43.8565 59.5605 44.0483 60.0064 44.3822 60.3344C44.7162 60.6624 45.1655 60.8462 45.6336 60.8462C46.1017 60.8462 46.551 60.6624 46.8849 60.3344C47.2189 60.0063 47.4106 59.5603 47.419 59.0924V48.2195C47.419 47.985 47.3729 47.7528 47.2832 47.5362C47.1935 47.3195 47.062 47.1227 46.8962 46.9569C46.7304 46.7911 46.5335 46.6596 46.3168 46.5699C46.1002 46.4802 45.868 46.434 45.6335 46.4341Z" fill="#157883"/>
<path d="M1.80155 60.0568C2.03605 60.0569 2.26828 60.0108 2.48495 59.9212C2.70163 59.8315 2.89851 59.7 3.06433 59.5342C3.23014 59.3683 3.36165 59.1715 3.45133 58.9548C3.54101 58.7381 3.58709 58.5059 3.58696 58.2714V26.7945H17.5496V55.3265C17.558 55.7945 17.7498 56.2405 18.0837 56.5685C18.4176 56.8964 18.867 57.0802 19.3351 57.0802C19.8031 57.0802 20.2525 56.8964 20.5864 56.5684C20.9203 56.2404 21.1121 55.7943 21.1204 55.3264V25.0091C21.1205 24.7746 21.0743 24.5424 20.9846 24.3257C20.8949 24.1091 20.7634 23.9122 20.5976 23.7464C20.4318 23.5806 20.235 23.4491 20.0183 23.3594C19.8017 23.2697 19.5695 23.2236 19.335 23.2236H1.80155C1.56706 23.2236 1.33486 23.2697 1.11822 23.3594C0.901572 23.4491 0.704723 23.5806 0.538919 23.7464C0.373114 23.9122 0.241602 24.1091 0.151897 24.3257C0.0621927 24.5424 0.0160526 24.7746 0.0161136 25.0091V58.2714C0.0159774 58.5059 0.0620661 58.7381 0.151744 58.9548C0.241422 59.1715 0.372931 59.3683 0.538751 59.5342C0.704571 59.7 0.901449 59.8315 1.11813 59.9212C1.33481 60.0109 1.56704 60.0569 1.80155 60.0568Z" fill="#157883"/>
<path d="M87.5072 24.8113C87.4094 24.3538 87.1359 23.9529 86.7456 23.695C86.3553 23.437 85.8794 23.3426 85.4201 23.4319C84.9609 23.5213 84.5551 23.7873 84.29 24.1728C84.0249 24.5583 83.9217 25.0325 84.0027 25.4933L84.6251 28.6979L58.325 10.9587C57.9314 10.6966 57.4504 10.6002 56.9862 10.6904C56.5221 10.7807 56.1122 11.0503 55.8456 11.4408L47.86 23.2814L13.8148 0.318456C13.4221 0.0656761 12.946 -0.0232527 12.4885 0.0707222C12.031 0.164697 11.6286 0.434101 11.3673 0.821219C11.106 1.20834 11.0068 1.68238 11.0908 2.14179C11.1748 2.6012 11.4354 3.00944 11.8167 3.27905L47.3421 27.2402C47.7355 27.5027 48.2167 27.5994 48.681 27.5091C49.1452 27.4188 49.5551 27.1489 49.8215 26.7581L57.8071 14.9174L82.6263 31.6579L79.424 32.2809C78.9652 32.3771 78.5627 32.65 78.3034 33.0405C78.044 33.431 77.9487 33.9079 78.038 34.3681C78.1273 34.8283 78.394 35.2349 78.7806 35.5001C79.1672 35.7653 79.6425 35.8678 80.104 35.7855C91.0683 33.4415 89.4955 35.9575 87.5072 24.8113Z" fill="#157883"/>
<path d="M25.2737 62.3077L23.2267 63.842L21.18 62.308C12.7005 55.6085 -0.526309 62.422 0.016174 73.2156C0.016174 83.487 6.89118 87.546 12.957 91.1256C16.7424 93.3609 20.3184 95.4706 21.5511 98.827C21.6771 99.1701 21.9053 99.4663 22.2049 99.6755C22.5046 99.8848 22.8613 99.997 23.2267 99.997C23.5922 99.997 23.9489 99.8848 24.2485 99.6755C24.5482 99.4663 24.7764 99.1701 24.9023 98.827C26.135 95.4706 29.7111 93.3609 33.4964 91.1256C39.5624 87.546 46.4373 83.487 46.4371 73.2159C46.9818 62.416 33.7488 55.6136 25.2737 62.3077ZM31.6814 88.0495C17.7831 96.1462 28.6576 96.1211 14.7721 88.05C9.02003 84.6552 3.58702 81.4487 3.58713 73.2156C3.54747 71.9174 3.76846 70.6245 4.23703 69.4132C4.7056 68.202 5.41223 67.0969 6.31517 66.1634C7.21811 65.2299 8.29903 64.4869 9.49403 63.9782C10.689 63.4696 11.9739 63.2057 13.2726 63.2022C16.5338 62.9728 19.6838 65.5839 22.1562 67.5018C22.4646 67.7343 22.8404 67.8601 23.2267 67.8601C23.613 67.8601 23.9888 67.7343 24.2972 67.5018L27.4148 65.1636C28.8718 64.0696 30.6085 63.41 32.4245 63.2611C34.2404 63.1121 36.0614 63.4799 37.6772 64.3219C39.2929 65.1638 40.6376 66.4457 41.5558 68.0194C42.4741 69.5931 42.9284 71.3945 42.8664 73.2154C42.8664 81.4487 37.4334 84.6552 31.6814 88.0495Z" fill="#157883"/>
</g>
<defs>
<clipPath id="clip0_3661_546">
<rect width="100" height="100" fill="white"/>
</clipPath>
</defs>
</svg>
