<svg width="100" height="100" viewBox="0 0 100 100" fill="none" xmlns="http://www.w3.org/2000/svg">
<g clip-path="url(#clip0_3661_530)">
<g clip-path="url(#clip1_3661_530)">
<path d="M62.885 50.8333C64.2894 49.8808 65.4861 48.6535 66.4027 47.2255C67.3194 45.7975 67.9371 44.1984 68.2183 42.525L68.7817 39.1617C70.0813 38.8363 71.2351 38.0861 72.0597 37.0302C72.8843 35.9742 73.3326 34.6731 73.3333 33.3333V23.3333C73.3333 17.1449 70.875 11.21 66.4992 6.83418C62.1233 2.45833 56.1884 0 50 0C43.8116 0 37.8767 2.45833 33.5009 6.83418C29.125 11.21 26.6667 17.1449 26.6667 23.3333V33.3333C26.6667 34.6749 27.1154 35.9778 27.9414 37.0349C28.7674 38.092 29.9233 38.8424 31.225 39.1667L31.7883 42.53C32.0696 44.2034 32.6873 45.8025 33.6039 47.2305C34.5206 48.6585 35.7173 49.8858 37.1217 50.8383C37.525 51.11 37.955 51.415 38.41 51.735C39.3617 52.4017 40.4367 53.1533 41.5967 53.8633C41.5169 54.2282 41.3524 54.5693 41.1164 54.8588C40.8805 55.1483 40.5797 55.3783 40.2383 55.53L22 63.5C19.9182 64.4037 18.1463 65.8966 16.9025 67.7949C15.6587 69.6932 14.9974 71.9139 15 74.1833V96.6667C15 97.5507 15.3512 98.3986 15.9763 99.0237C16.6014 99.6488 17.4493 100 18.3333 100H23.4667C24.3056 100.003 25.1148 99.6891 25.7326 99.1216C26.3505 98.5541 26.7316 97.7745 26.8 96.9383L27.5133 88.3633L33.3467 92.53V96.6667C33.3467 97.5507 33.6979 98.3986 34.323 99.0237C34.9481 99.6488 35.796 100 36.68 100H63.3333C64.2174 100 65.0652 99.6488 65.6904 99.0237C66.3155 98.3986 66.6667 97.5507 66.6667 96.6667V92.525L72.5 88.3583L73.2117 96.9567C73.2852 97.7889 73.6686 98.5633 74.2859 99.1263C74.9032 99.6893 75.7095 99.9999 76.545 99.9967H81.6667C82.5507 99.9967 83.3986 99.6455 84.0237 99.0204C84.6488 98.3952 85 97.5474 85 96.6633V74.1833C85.0029 71.9138 84.3417 69.6931 83.0978 67.7947C81.854 65.8964 80.0819 64.4035 78 63.5L59.7667 55.5167C59.425 55.3653 59.1238 55.1355 58.8875 54.8459C58.6512 54.5563 58.4865 54.2151 58.4067 53.85C59.5733 53.14 60.6417 52.3933 61.5933 51.7217C62.05 51.4067 62.4817 51.1017 62.885 50.8333ZM50 3.33333C55.3026 3.33907 60.3863 5.44805 64.1358 9.19753C67.8853 12.947 69.9943 18.0308 70 23.3333V27.975C69.6415 27.7893 69.2644 27.6418 68.875 27.535C68.7048 26.121 68.0936 24.7965 67.1282 23.7494C66.1628 22.7024 64.8922 21.9859 63.4967 21.7017C59.4852 21.1994 55.6182 19.8849 52.1317 17.8383C51.4942 17.4333 50.7545 17.2182 49.9992 17.2182C49.2439 17.2182 48.5042 17.4333 47.8667 17.8383C44.3802 19.8873 40.5125 21.2036 36.5 21.7067C35.1048 21.9912 33.8345 22.7078 32.8694 23.7549C31.9044 24.8019 31.2934 26.1262 31.1233 27.54C30.7339 27.6468 30.3569 27.7943 29.9983 27.98V23.3333C30.0041 18.0305 32.1133 12.9465 35.8631 9.19694C39.613 5.44741 44.6971 3.33863 50 3.33333ZM58.4317 58.5767L76.6667 66.5617C78.1526 67.206 79.4176 68.2708 80.306 69.6251C81.1944 70.9793 81.6674 72.5637 81.6667 74.1833V96.6667H76.5283L75.5783 85.1667C75.5783 85.15 75.5683 85.135 75.5667 85.1183L75 78.195C74.9633 77.753 74.7525 77.3436 74.414 77.057C74.0755 76.7704 73.637 76.63 73.195 76.6667C72.753 76.7034 72.3436 76.9141 72.057 77.2526C71.7704 77.5911 71.63 78.0296 71.6667 78.4717L72.1667 84.4967L64.025 90.3117C63.8105 90.4664 63.6358 90.67 63.5156 90.9057C63.3953 91.1413 63.3328 91.4021 63.3333 91.6667V96.6667H60V95.3933C60.0029 94.4643 59.7455 93.553 59.2572 92.7627C58.7688 91.9724 58.0689 91.3347 57.2367 90.9217L55.745 90.175C55.3494 89.9774 54.8915 89.9451 54.472 90.0851C54.0526 90.2251 53.7059 90.5261 53.5083 90.9217C53.3108 91.3173 53.2784 91.7752 53.4184 92.1946C53.5585 92.6141 53.8594 92.9608 54.255 93.1583L55.745 93.9033C56.0227 94.0406 56.2562 94.253 56.4192 94.5164C56.5821 94.7798 56.6679 95.0836 56.6667 95.3933V96.6667H43.3333V95.3933C43.3322 95.0836 43.4179 94.7798 43.5808 94.5164C43.7438 94.253 43.9773 94.0406 44.255 93.9033L45.745 93.1583C46.1406 92.9608 46.4415 92.6141 46.5816 92.1946C46.7216 91.7752 46.6893 91.3173 46.4917 90.9217C46.2941 90.5261 45.9474 90.2251 45.528 90.0851C45.1085 89.9451 44.6506 89.9774 44.255 90.175L42.7633 90.9217C41.9312 91.3347 41.2312 91.9724 40.7429 92.7627C40.2545 93.553 39.9972 94.4643 40 95.3933V96.6667H36.6667V91.6667C36.6664 91.4016 36.603 91.1403 36.4815 90.9047C36.36 90.669 36.1841 90.4657 35.9683 90.3117L27.8333 84.5L28.3333 78.4767C28.3707 78.0346 28.2309 77.5959 27.9448 77.2569C27.6586 76.9179 27.2495 76.7065 26.8075 76.6692C26.3655 76.6318 25.9267 76.7716 25.5877 77.0577C25.2488 77.3439 25.0374 77.753 25 78.195L24.4283 85.1667L23.4667 96.6667H18.3333V74.1833C18.3325 72.5635 18.8054 70.9788 19.6938 69.6243C20.5822 68.2698 21.8473 67.2046 23.3333 66.56L41.5683 58.5767C42.9507 57.9666 44.0353 56.8341 44.585 55.4267C46.2857 56.2075 48.129 56.6296 50 56.6667C51.8705 56.6294 53.7132 56.2073 55.4133 55.4267C55.9632 56.8346 57.0485 57.9673 58.4317 58.5767ZM59.6767 49.0017C56.94 50.9317 53.5333 53.3333 50 53.3333C46.4667 53.3333 43.06 50.9317 40.3233 49C39.85 48.6667 39.4017 48.35 38.98 48.065C37.951 47.3659 37.0745 46.4653 36.4035 45.4176C35.7326 44.37 35.2812 43.1971 35.0767 41.97L34.31 37.39C34.2446 37.0014 34.0436 36.6486 33.7428 36.3942C33.442 36.1397 33.0607 36.0001 32.6667 36C31.9594 36 31.2812 35.719 30.7811 35.219C30.281 34.7189 30 34.0406 30 33.3333C30 32.6261 30.281 31.9478 30.7811 31.4477C31.2812 30.9476 31.9594 30.6667 32.6667 30.6667C33.1087 30.6667 33.5326 30.4911 33.8452 30.1785C34.1577 29.866 34.3333 29.442 34.3333 29C34.2494 28.1329 34.4659 27.2633 34.9464 26.5366C35.427 25.81 36.1426 25.2705 36.9733 25.0083C41.4476 24.4398 45.7583 22.9617 49.64 20.665C49.7474 20.5955 49.8721 20.5574 50 20.555C50.1281 20.5563 50.2531 20.5945 50.36 20.665C54.2419 22.9612 58.5525 24.4393 63.0267 25.0083C63.8576 25.2702 64.5734 25.8097 65.054 26.5364C65.5346 27.2631 65.7509 28.1328 65.6667 29C65.6667 29.442 65.8423 29.866 66.1548 30.1785C66.4674 30.4911 66.8913 30.6667 67.3333 30.6667C67.6835 30.6667 68.0303 30.7356 68.3538 30.8697C68.6774 31.0037 68.9713 31.2001 69.219 31.4477C69.4666 31.6953 69.663 31.9893 69.797 32.3128C69.931 32.6364 70 32.9831 70 33.3333C70 33.6835 69.931 34.0303 69.797 34.3538C69.663 34.6774 69.4666 34.9713 69.219 35.219C68.9713 35.4666 68.6774 35.663 68.3538 35.797C68.0303 35.931 67.6835 36 67.3333 36C66.9391 36.0001 66.5576 36.14 66.2567 36.3948C65.9559 36.6496 65.7551 37.0028 65.69 37.3917L64.9233 41.9717C64.7188 43.1988 64.2674 44.3717 63.5965 45.4193C62.9256 46.4669 62.049 47.3676 61.02 48.0667C60.5983 48.3517 60.15 48.6683 59.6767 49.0017Z" fill="#157883"/>
<path d="M46.6666 83.3335H38.3333C37.8913 83.3335 37.4673 83.5091 37.1548 83.8217C36.8422 84.1342 36.6666 84.5581 36.6666 85.0002C36.6666 85.4422 36.8422 85.8661 37.1548 86.1787C37.4673 86.4912 37.8913 86.6668 38.3333 86.6668H46.6666C47.1087 86.6668 47.5326 86.4912 47.8451 86.1787C48.1577 85.8661 48.3333 85.4422 48.3333 85.0002C48.3333 84.5581 48.1577 84.1342 47.8451 83.8217C47.5326 83.5091 47.1087 83.3335 46.6666 83.3335Z" fill="#157883"/>
<path d="M46.6666 78.3332C46.6666 77.8911 46.491 77.4672 46.1785 77.1547C45.8659 76.8421 45.442 76.6665 45 76.6665H33.3333C32.8913 76.6665 32.4673 76.8421 32.1548 77.1547C31.8422 77.4672 31.6666 77.8911 31.6666 78.3332C31.6666 78.7752 31.8422 79.1991 32.1548 79.5117C32.4673 79.8242 32.8913 79.9998 33.3333 79.9998H45C45.442 79.9998 45.8659 79.8242 46.1785 79.5117C46.491 79.1991 46.6666 78.7752 46.6666 78.3332Z" fill="#157883"/>
<path d="M53.3333 86.6668H61.6666C62.1087 86.6668 62.5326 86.4912 62.8451 86.1787C63.1577 85.8661 63.3333 85.4422 63.3333 85.0002C63.3333 84.5581 63.1577 84.1342 62.8451 83.8217C62.5326 83.5091 62.1087 83.3335 61.6666 83.3335H53.3333C52.8913 83.3335 52.4673 83.5091 52.1548 83.8217C51.8422 84.1342 51.6666 84.5581 51.6666 85.0002C51.6666 85.4422 51.8422 85.8661 52.1548 86.1787C52.4673 86.4912 52.8913 86.6668 53.3333 86.6668Z" fill="#157883"/>
<path d="M55 79.9998H66.6667C67.1087 79.9998 67.5327 79.8242 67.8452 79.5117C68.1578 79.1991 68.3334 78.7752 68.3334 78.3332C68.3334 77.8911 68.1578 77.4672 67.8452 77.1547C67.5327 76.8421 67.1087 76.6665 66.6667 76.6665H55C54.558 76.6665 54.1341 76.8421 53.8215 77.1547C53.509 77.4672 53.3334 77.8911 53.3334 78.3332C53.3334 78.7752 53.509 79.1991 53.8215 79.5117C54.1341 79.8242 54.558 79.9998 55 79.9998Z" fill="#157883"/>
</g>
</g>
<defs>
<clipPath id="clip0_3661_530">
<rect width="100" height="100" fill="white"/>
</clipPath>
<clipPath id="clip1_3661_530">
<rect width="100" height="100" fill="white"/>
</clipPath>
</defs>
</svg>
